<mxfile host="app.diagrams.net" modified="2021-12-03T18:57:56.469Z" agent="5.0 (Windows NT 10.0; Win64; x64) AppleWebKit/537.36 (KHTML, like Gecko) Chrome/96.0.4664.45 Safari/537.36" etag="uy_yBApUzWV_WQs0Br7O" version="15.8.6" type="github">
  <diagram id="TrALUGcJcbnn1xJpBmR4" name="Page-1">
    <mxGraphModel dx="1642" dy="1586" grid="1" gridSize="10" guides="1" tooltips="1" connect="1" arrows="1" fold="1" page="1" pageScale="1" pageWidth="850" pageHeight="1100" math="0" shadow="0">
      <root>
        <mxCell id="0" />
        <mxCell id="1" parent="0" />
        <mxCell id="b2WUHyonEJMLoh59kTHS-1" value="Customer" style="whiteSpace=wrap;html=1;align=center;" parent="1" vertex="1">
          <mxGeometry x="40" y="160" width="100" height="40" as="geometry" />
        </mxCell>
        <mxCell id="b2WUHyonEJMLoh59kTHS-2" value="Library Card" style="whiteSpace=wrap;html=1;align=center;" parent="1" vertex="1">
          <mxGeometry x="375" y="50" width="100" height="40" as="geometry" />
        </mxCell>
        <mxCell id="b2WUHyonEJMLoh59kTHS-3" value="Books" style="whiteSpace=wrap;html=1;align=center;" parent="1" vertex="1">
          <mxGeometry x="330" y="240" width="100" height="40" as="geometry" />
        </mxCell>
        <mxCell id="b2WUHyonEJMLoh59kTHS-4" value="Branch" style="whiteSpace=wrap;html=1;align=center;" parent="1" vertex="1">
          <mxGeometry x="480" y="430" width="100" height="40" as="geometry" />
        </mxCell>
        <mxCell id="b2WUHyonEJMLoh59kTHS-5" value="Employee" style="whiteSpace=wrap;html=1;align=center;" parent="1" vertex="1">
          <mxGeometry x="610" y="190" width="100" height="40" as="geometry" />
        </mxCell>
        <mxCell id="b2WUHyonEJMLoh59kTHS-6" value="get" style="shape=rhombus;perimeter=rhombusPerimeter;whiteSpace=wrap;html=1;align=center;" parent="1" vertex="1">
          <mxGeometry x="150" y="240" width="80" height="60" as="geometry" />
        </mxCell>
        <mxCell id="b2WUHyonEJMLoh59kTHS-7" value="has" style="shape=rhombus;perimeter=rhombusPerimeter;whiteSpace=wrap;html=1;align=center;" parent="1" vertex="1">
          <mxGeometry x="250" y="70" width="80" height="60" as="geometry" />
        </mxCell>
        <mxCell id="b2WUHyonEJMLoh59kTHS-8" value="have" style="shape=rhombus;perimeter=rhombusPerimeter;whiteSpace=wrap;html=1;align=center;" parent="1" vertex="1">
          <mxGeometry x="610" y="290" width="80" height="60" as="geometry" />
        </mxCell>
        <mxCell id="b2WUHyonEJMLoh59kTHS-9" value="store" style="shape=rhombus;perimeter=rhombusPerimeter;whiteSpace=wrap;html=1;align=center;" parent="1" vertex="1">
          <mxGeometry x="425" y="330" width="80" height="60" as="geometry" />
        </mxCell>
        <mxCell id="b2WUHyonEJMLoh59kTHS-10" value="" style="endArrow=none;html=1;rounded=0;exitX=0;exitY=0.5;exitDx=0;exitDy=0;" parent="1" source="b2WUHyonEJMLoh59kTHS-6" edge="1">
          <mxGeometry relative="1" as="geometry">
            <mxPoint x="330" y="250" as="sourcePoint" />
            <mxPoint x="120" y="200" as="targetPoint" />
          </mxGeometry>
        </mxCell>
        <mxCell id="b2WUHyonEJMLoh59kTHS-11" value="1" style="resizable=0;html=1;align=right;verticalAlign=bottom;" parent="b2WUHyonEJMLoh59kTHS-10" connectable="0" vertex="1">
          <mxGeometry x="1" relative="1" as="geometry">
            <mxPoint y="20" as="offset" />
          </mxGeometry>
        </mxCell>
        <mxCell id="b2WUHyonEJMLoh59kTHS-12" value="" style="endArrow=none;html=1;rounded=0;exitX=1;exitY=0.5;exitDx=0;exitDy=0;entryX=0;entryY=0.5;entryDx=0;entryDy=0;" parent="1" source="b2WUHyonEJMLoh59kTHS-6" target="b2WUHyonEJMLoh59kTHS-3" edge="1">
          <mxGeometry relative="1" as="geometry">
            <mxPoint x="330" y="250" as="sourcePoint" />
            <mxPoint x="490" y="250" as="targetPoint" />
          </mxGeometry>
        </mxCell>
        <mxCell id="b2WUHyonEJMLoh59kTHS-13" value="N" style="resizable=0;html=1;align=right;verticalAlign=bottom;" parent="b2WUHyonEJMLoh59kTHS-12" connectable="0" vertex="1">
          <mxGeometry x="1" relative="1" as="geometry" />
        </mxCell>
        <mxCell id="b2WUHyonEJMLoh59kTHS-15" value="" style="endArrow=none;html=1;rounded=0;exitX=1;exitY=0.5;exitDx=0;exitDy=0;entryX=0.25;entryY=1;entryDx=0;entryDy=0;" parent="1" source="b2WUHyonEJMLoh59kTHS-7" target="b2WUHyonEJMLoh59kTHS-2" edge="1">
          <mxGeometry relative="1" as="geometry">
            <mxPoint x="160" y="280" as="sourcePoint" />
            <mxPoint x="130" y="210" as="targetPoint" />
          </mxGeometry>
        </mxCell>
        <mxCell id="b2WUHyonEJMLoh59kTHS-16" value="1" style="resizable=0;html=1;align=right;verticalAlign=bottom;" parent="b2WUHyonEJMLoh59kTHS-15" connectable="0" vertex="1">
          <mxGeometry x="1" relative="1" as="geometry">
            <mxPoint y="20" as="offset" />
          </mxGeometry>
        </mxCell>
        <mxCell id="b2WUHyonEJMLoh59kTHS-17" value="" style="endArrow=none;html=1;rounded=0;exitX=0;exitY=0.5;exitDx=0;exitDy=0;entryX=1;entryY=0;entryDx=0;entryDy=0;" parent="1" source="b2WUHyonEJMLoh59kTHS-7" target="b2WUHyonEJMLoh59kTHS-1" edge="1">
          <mxGeometry relative="1" as="geometry">
            <mxPoint x="340" y="110" as="sourcePoint" />
            <mxPoint x="405" y="90" as="targetPoint" />
          </mxGeometry>
        </mxCell>
        <mxCell id="b2WUHyonEJMLoh59kTHS-18" value="1" style="resizable=0;html=1;align=right;verticalAlign=bottom;" parent="b2WUHyonEJMLoh59kTHS-17" connectable="0" vertex="1">
          <mxGeometry x="1" relative="1" as="geometry" />
        </mxCell>
        <mxCell id="b2WUHyonEJMLoh59kTHS-21" value="" style="endArrow=none;html=1;rounded=0;exitX=0.5;exitY=1;exitDx=0;exitDy=0;entryX=0;entryY=0.5;entryDx=0;entryDy=0;" parent="1" target="b2WUHyonEJMLoh59kTHS-9" edge="1">
          <mxGeometry relative="1" as="geometry">
            <mxPoint x="390" y="280" as="sourcePoint" />
            <mxPoint x="435" y="360" as="targetPoint" />
          </mxGeometry>
        </mxCell>
        <mxCell id="b2WUHyonEJMLoh59kTHS-22" value="M" style="resizable=0;html=1;align=left;verticalAlign=bottom;" parent="b2WUHyonEJMLoh59kTHS-21" connectable="0" vertex="1">
          <mxGeometry x="-1" relative="1" as="geometry">
            <mxPoint x="-10" y="20" as="offset" />
          </mxGeometry>
        </mxCell>
        <mxCell id="b2WUHyonEJMLoh59kTHS-23" value="N" style="resizable=0;html=1;align=right;verticalAlign=bottom;" parent="b2WUHyonEJMLoh59kTHS-21" connectable="0" vertex="1">
          <mxGeometry x="1" relative="1" as="geometry">
            <mxPoint x="115" y="70" as="offset" />
          </mxGeometry>
        </mxCell>
        <mxCell id="b2WUHyonEJMLoh59kTHS-24" value="" style="endArrow=none;html=1;rounded=0;entryX=1;entryY=0.5;entryDx=0;entryDy=0;exitX=0.5;exitY=0;exitDx=0;exitDy=0;" parent="1" source="b2WUHyonEJMLoh59kTHS-4" target="b2WUHyonEJMLoh59kTHS-9" edge="1">
          <mxGeometry relative="1" as="geometry">
            <mxPoint x="380" y="300" as="sourcePoint" />
            <mxPoint x="540" y="300" as="targetPoint" />
          </mxGeometry>
        </mxCell>
        <mxCell id="b2WUHyonEJMLoh59kTHS-26" value="" style="endArrow=none;html=1;rounded=0;entryX=0.548;entryY=1.009;entryDx=0;entryDy=0;entryPerimeter=0;exitX=0.5;exitY=0;exitDx=0;exitDy=0;" parent="1" edge="1">
          <mxGeometry relative="1" as="geometry">
            <mxPoint x="652.6" y="289.64" as="sourcePoint" />
            <mxPoint x="667.4000000000001" y="230" as="targetPoint" />
          </mxGeometry>
        </mxCell>
        <mxCell id="b2WUHyonEJMLoh59kTHS-27" value="N" style="resizable=0;html=1;align=right;verticalAlign=bottom;" parent="b2WUHyonEJMLoh59kTHS-26" connectable="0" vertex="1">
          <mxGeometry x="1" relative="1" as="geometry">
            <mxPoint x="-7" y="17" as="offset" />
          </mxGeometry>
        </mxCell>
        <mxCell id="b2WUHyonEJMLoh59kTHS-28" value="" style="endArrow=none;html=1;rounded=0;entryX=1;entryY=0;entryDx=0;entryDy=0;exitX=0.5;exitY=1;exitDx=0;exitDy=0;" parent="1" source="b2WUHyonEJMLoh59kTHS-8" target="b2WUHyonEJMLoh59kTHS-4" edge="1">
          <mxGeometry relative="1" as="geometry">
            <mxPoint x="420" y="350" as="sourcePoint" />
            <mxPoint x="580" y="350" as="targetPoint" />
          </mxGeometry>
        </mxCell>
        <mxCell id="b2WUHyonEJMLoh59kTHS-29" value="1" style="resizable=0;html=1;align=right;verticalAlign=bottom;" parent="b2WUHyonEJMLoh59kTHS-28" connectable="0" vertex="1">
          <mxGeometry x="1" relative="1" as="geometry" />
        </mxCell>
        <mxCell id="b2WUHyonEJMLoh59kTHS-34" style="rounded=0;orthogonalLoop=1;jettySize=auto;html=1;endArrow=none;endFill=0;" parent="1" source="b2WUHyonEJMLoh59kTHS-30" target="b2WUHyonEJMLoh59kTHS-2" edge="1">
          <mxGeometry relative="1" as="geometry" />
        </mxCell>
        <mxCell id="b2WUHyonEJMLoh59kTHS-30" value="Username" style="ellipse;whiteSpace=wrap;html=1;align=center;" parent="1" vertex="1">
          <mxGeometry x="330" y="-50" width="100" height="40" as="geometry" />
        </mxCell>
        <mxCell id="b2WUHyonEJMLoh59kTHS-36" style="edgeStyle=none;rounded=0;orthogonalLoop=1;jettySize=auto;html=1;entryX=0.386;entryY=0.033;entryDx=0;entryDy=0;entryPerimeter=0;endArrow=none;endFill=0;" parent="1" target="b2WUHyonEJMLoh59kTHS-2" edge="1">
          <mxGeometry relative="1" as="geometry">
            <mxPoint x="463.1405386929973" y="-1.8633067758000834" as="sourcePoint" />
          </mxGeometry>
        </mxCell>
        <mxCell id="b2WUHyonEJMLoh59kTHS-37" style="edgeStyle=none;rounded=0;orthogonalLoop=1;jettySize=auto;html=1;entryX=0.417;entryY=-0.046;entryDx=0;entryDy=0;entryPerimeter=0;endArrow=none;endFill=0;" parent="1" source="b2WUHyonEJMLoh59kTHS-32" target="b2WUHyonEJMLoh59kTHS-2" edge="1">
          <mxGeometry relative="1" as="geometry" />
        </mxCell>
        <mxCell id="b2WUHyonEJMLoh59kTHS-32" value="Temporary Password" style="ellipse;whiteSpace=wrap;html=1;align=center;" parent="1" vertex="1">
          <mxGeometry x="470" width="80" height="50" as="geometry" />
        </mxCell>
        <mxCell id="b2WUHyonEJMLoh59kTHS-35" style="edgeStyle=none;rounded=0;orthogonalLoop=1;jettySize=auto;html=1;endArrow=none;endFill=0;" parent="1" source="b2WUHyonEJMLoh59kTHS-33" edge="1">
          <mxGeometry relative="1" as="geometry">
            <mxPoint x="410" y="50" as="targetPoint" />
          </mxGeometry>
        </mxCell>
        <mxCell id="b2WUHyonEJMLoh59kTHS-33" value="fine" style="ellipse;whiteSpace=wrap;html=1;align=center;" parent="1" vertex="1">
          <mxGeometry x="332.5" width="50" height="40" as="geometry" />
        </mxCell>
        <mxCell id="b2WUHyonEJMLoh59kTHS-42" style="edgeStyle=none;rounded=0;orthogonalLoop=1;jettySize=auto;html=1;entryX=0.5;entryY=0;entryDx=0;entryDy=0;endArrow=none;endFill=0;" parent="1" source="b2WUHyonEJMLoh59kTHS-38" target="b2WUHyonEJMLoh59kTHS-1" edge="1">
          <mxGeometry relative="1" as="geometry" />
        </mxCell>
        <mxCell id="b2WUHyonEJMLoh59kTHS-38" value="Name" style="ellipse;whiteSpace=wrap;html=1;align=center;" parent="1" vertex="1">
          <mxGeometry x="50" y="80" width="70" height="40" as="geometry" />
        </mxCell>
        <mxCell id="b2WUHyonEJMLoh59kTHS-43" style="edgeStyle=none;rounded=0;orthogonalLoop=1;jettySize=auto;html=1;entryX=0.5;entryY=0;entryDx=0;entryDy=0;endArrow=none;endFill=0;" parent="1" source="b2WUHyonEJMLoh59kTHS-39" target="b2WUHyonEJMLoh59kTHS-1" edge="1">
          <mxGeometry relative="1" as="geometry" />
        </mxCell>
        <mxCell id="b2WUHyonEJMLoh59kTHS-39" value="Address" style="ellipse;whiteSpace=wrap;html=1;align=center;" parent="1" vertex="1">
          <mxGeometry x="-30" y="40" width="80" height="40" as="geometry" />
        </mxCell>
        <mxCell id="b2WUHyonEJMLoh59kTHS-45" style="edgeStyle=none;rounded=0;orthogonalLoop=1;jettySize=auto;html=1;entryX=0.448;entryY=-0.025;entryDx=0;entryDy=0;entryPerimeter=0;endArrow=none;endFill=0;" parent="1" source="b2WUHyonEJMLoh59kTHS-40" target="b2WUHyonEJMLoh59kTHS-1" edge="1">
          <mxGeometry relative="1" as="geometry" />
        </mxCell>
        <mxCell id="b2WUHyonEJMLoh59kTHS-40" value="Phone No" style="ellipse;whiteSpace=wrap;html=1;align=center;" parent="1" vertex="1">
          <mxGeometry x="-70" y="130" width="70" height="40" as="geometry" />
        </mxCell>
        <mxCell id="b2WUHyonEJMLoh59kTHS-44" style="edgeStyle=none;rounded=0;orthogonalLoop=1;jettySize=auto;html=1;entryX=0.5;entryY=0;entryDx=0;entryDy=0;endArrow=none;endFill=0;" parent="1" source="b2WUHyonEJMLoh59kTHS-41" target="b2WUHyonEJMLoh59kTHS-1" edge="1">
          <mxGeometry relative="1" as="geometry" />
        </mxCell>
        <mxCell id="b2WUHyonEJMLoh59kTHS-41" value="DoB" style="ellipse;whiteSpace=wrap;html=1;align=center;" parent="1" vertex="1">
          <mxGeometry x="-45" y="90" width="60" height="40" as="geometry" />
        </mxCell>
        <mxCell id="b2WUHyonEJMLoh59kTHS-56" style="edgeStyle=none;rounded=0;orthogonalLoop=1;jettySize=auto;html=1;entryX=0.25;entryY=1;entryDx=0;entryDy=0;endArrow=none;endFill=0;" parent="1" target="b2WUHyonEJMLoh59kTHS-3" edge="1">
          <mxGeometry relative="1" as="geometry">
            <mxPoint x="275" y="327.9999999999998" as="sourcePoint" />
          </mxGeometry>
        </mxCell>
        <mxCell id="b2WUHyonEJMLoh59kTHS-57" style="edgeStyle=none;rounded=0;orthogonalLoop=1;jettySize=auto;html=1;entryX=0.25;entryY=1;entryDx=0;entryDy=0;endArrow=none;endFill=0;" parent="1" source="b2WUHyonEJMLoh59kTHS-47" target="b2WUHyonEJMLoh59kTHS-3" edge="1">
          <mxGeometry relative="1" as="geometry" />
        </mxCell>
        <mxCell id="b2WUHyonEJMLoh59kTHS-60" style="edgeStyle=none;rounded=0;orthogonalLoop=1;jettySize=auto;html=1;entryX=0.25;entryY=1;entryDx=0;entryDy=0;endArrow=none;endFill=0;startArrow=none;" parent="1" source="b2WUHyonEJMLoh59kTHS-47" target="b2WUHyonEJMLoh59kTHS-3" edge="1">
          <mxGeometry relative="1" as="geometry" />
        </mxCell>
        <mxCell id="b2WUHyonEJMLoh59kTHS-62" style="edgeStyle=none;rounded=0;orthogonalLoop=1;jettySize=auto;html=1;entryX=0.25;entryY=1;entryDx=0;entryDy=0;endArrow=none;endFill=0;" parent="1" source="b2WUHyonEJMLoh59kTHS-49" target="b2WUHyonEJMLoh59kTHS-3" edge="1">
          <mxGeometry relative="1" as="geometry" />
        </mxCell>
        <mxCell id="b2WUHyonEJMLoh59kTHS-49" value="First Author" style="ellipse;whiteSpace=wrap;html=1;align=center;" parent="1" vertex="1">
          <mxGeometry x="170" y="390" width="70" height="40" as="geometry" />
        </mxCell>
        <mxCell id="b2WUHyonEJMLoh59kTHS-55" style="edgeStyle=none;rounded=0;orthogonalLoop=1;jettySize=auto;html=1;endArrow=none;endFill=0;entryX=0.25;entryY=1;entryDx=0;entryDy=0;" parent="1" source="b2WUHyonEJMLoh59kTHS-50" target="b2WUHyonEJMLoh59kTHS-3" edge="1">
          <mxGeometry relative="1" as="geometry">
            <mxPoint x="360" y="280" as="targetPoint" />
          </mxGeometry>
        </mxCell>
        <mxCell id="b2WUHyonEJMLoh59kTHS-58" style="edgeStyle=none;rounded=0;orthogonalLoop=1;jettySize=auto;html=1;entryX=0.25;entryY=1;entryDx=0;entryDy=0;endArrow=none;endFill=0;" parent="1" source="b2WUHyonEJMLoh59kTHS-51" target="b2WUHyonEJMLoh59kTHS-3" edge="1">
          <mxGeometry relative="1" as="geometry" />
        </mxCell>
        <mxCell id="b2WUHyonEJMLoh59kTHS-52" value="Check in" style="ellipse;whiteSpace=wrap;html=1;align=center;" parent="1" vertex="1">
          <mxGeometry x="280" y="500" width="70" height="40" as="geometry" />
        </mxCell>
        <mxCell id="b2WUHyonEJMLoh59kTHS-53" value="Check&amp;nbsp; out" style="ellipse;whiteSpace=wrap;html=1;align=center;" parent="1" vertex="1">
          <mxGeometry x="355" y="500" width="70" height="40" as="geometry" />
        </mxCell>
        <mxCell id="b2WUHyonEJMLoh59kTHS-63" style="edgeStyle=none;rounded=0;orthogonalLoop=1;jettySize=auto;html=1;entryX=0.25;entryY=1;entryDx=0;entryDy=0;endArrow=none;endFill=0;" parent="1" source="b2WUHyonEJMLoh59kTHS-54" target="b2WUHyonEJMLoh59kTHS-3" edge="1">
          <mxGeometry relative="1" as="geometry" />
        </mxCell>
        <mxCell id="b2WUHyonEJMLoh59kTHS-54" value="Location" style="ellipse;whiteSpace=wrap;html=1;align=center;" parent="1" vertex="1">
          <mxGeometry x="195" y="440" width="55" height="40" as="geometry" />
        </mxCell>
        <mxCell id="bO9rhbKT4PHNCl04hBEk-5" style="edgeStyle=none;rounded=0;orthogonalLoop=1;jettySize=auto;html=1;endArrow=none;endFill=0;" edge="1" parent="1" source="b2WUHyonEJMLoh59kTHS-50" target="b2WUHyonEJMLoh59kTHS-53">
          <mxGeometry relative="1" as="geometry" />
        </mxCell>
        <mxCell id="bO9rhbKT4PHNCl04hBEk-6" style="edgeStyle=none;rounded=0;orthogonalLoop=1;jettySize=auto;html=1;endArrow=none;endFill=0;" edge="1" parent="1" source="b2WUHyonEJMLoh59kTHS-50" target="b2WUHyonEJMLoh59kTHS-52">
          <mxGeometry relative="1" as="geometry" />
        </mxCell>
        <mxCell id="b2WUHyonEJMLoh59kTHS-50" value="Status" style="ellipse;whiteSpace=wrap;html=1;align=center;" parent="1" vertex="1">
          <mxGeometry x="322.5" y="430" width="60" height="40" as="geometry" />
        </mxCell>
        <mxCell id="b2WUHyonEJMLoh59kTHS-51" value="Title" style="ellipse;whiteSpace=wrap;html=1;align=center;" parent="1" vertex="1">
          <mxGeometry x="350" y="360" width="45" height="40" as="geometry" />
        </mxCell>
        <mxCell id="b2WUHyonEJMLoh59kTHS-48" value="Price" style="ellipse;whiteSpace=wrap;html=1;align=center;" parent="1" vertex="1">
          <mxGeometry x="270" y="410" width="50" height="40" as="geometry" />
        </mxCell>
        <mxCell id="b2WUHyonEJMLoh59kTHS-72" style="edgeStyle=none;rounded=0;orthogonalLoop=1;jettySize=auto;html=1;entryX=0.5;entryY=1;entryDx=0;entryDy=0;endArrow=none;endFill=0;" parent="1" source="b2WUHyonEJMLoh59kTHS-64" target="b2WUHyonEJMLoh59kTHS-4" edge="1">
          <mxGeometry relative="1" as="geometry" />
        </mxCell>
        <mxCell id="b2WUHyonEJMLoh59kTHS-64" value="Location" style="ellipse;whiteSpace=wrap;html=1;align=center;" parent="1" vertex="1">
          <mxGeometry x="450" y="510" width="55" height="40" as="geometry" />
        </mxCell>
        <mxCell id="b2WUHyonEJMLoh59kTHS-70" style="edgeStyle=none;rounded=0;orthogonalLoop=1;jettySize=auto;html=1;entryX=0.5;entryY=1;entryDx=0;entryDy=0;endArrow=none;endFill=0;" parent="1" source="b2WUHyonEJMLoh59kTHS-65" target="b2WUHyonEJMLoh59kTHS-4" edge="1">
          <mxGeometry relative="1" as="geometry" />
        </mxCell>
        <mxCell id="b2WUHyonEJMLoh59kTHS-65" value="Address" style="ellipse;whiteSpace=wrap;html=1;align=center;" parent="1" vertex="1">
          <mxGeometry x="540" y="530" width="80" height="40" as="geometry" />
        </mxCell>
        <mxCell id="b2WUHyonEJMLoh59kTHS-69" style="edgeStyle=none;rounded=0;orthogonalLoop=1;jettySize=auto;html=1;entryX=0.472;entryY=1.01;entryDx=0;entryDy=0;entryPerimeter=0;endArrow=none;endFill=0;" parent="1" source="b2WUHyonEJMLoh59kTHS-66" target="b2WUHyonEJMLoh59kTHS-4" edge="1">
          <mxGeometry relative="1" as="geometry" />
        </mxCell>
        <mxCell id="b2WUHyonEJMLoh59kTHS-66" value="Name" style="ellipse;whiteSpace=wrap;html=1;align=center;" parent="1" vertex="1">
          <mxGeometry x="570" y="480" width="60" height="40" as="geometry" />
        </mxCell>
        <mxCell id="b2WUHyonEJMLoh59kTHS-71" style="edgeStyle=none;rounded=0;orthogonalLoop=1;jettySize=auto;html=1;endArrow=none;endFill=0;" parent="1" source="b2WUHyonEJMLoh59kTHS-67" edge="1">
          <mxGeometry relative="1" as="geometry">
            <mxPoint x="530" y="470" as="targetPoint" />
          </mxGeometry>
        </mxCell>
        <mxCell id="b2WUHyonEJMLoh59kTHS-67" value="Phone No" style="ellipse;whiteSpace=wrap;html=1;align=center;" parent="1" vertex="1">
          <mxGeometry x="475" y="560" width="70" height="40" as="geometry" />
        </mxCell>
        <mxCell id="b2WUHyonEJMLoh59kTHS-76" style="edgeStyle=none;rounded=0;orthogonalLoop=1;jettySize=auto;html=1;entryX=0.5;entryY=0;entryDx=0;entryDy=0;endArrow=none;endFill=0;" parent="1" target="b2WUHyonEJMLoh59kTHS-5" edge="1">
          <mxGeometry relative="1" as="geometry">
            <mxPoint x="621.2402448134821" y="147.7166307056168" as="sourcePoint" />
          </mxGeometry>
        </mxCell>
        <mxCell id="b2WUHyonEJMLoh59kTHS-77" style="edgeStyle=none;rounded=0;orthogonalLoop=1;jettySize=auto;html=1;entryX=0.5;entryY=0;entryDx=0;entryDy=0;endArrow=none;endFill=0;" parent="1" source="b2WUHyonEJMLoh59kTHS-74" target="b2WUHyonEJMLoh59kTHS-5" edge="1">
          <mxGeometry relative="1" as="geometry" />
        </mxCell>
        <mxCell id="b2WUHyonEJMLoh59kTHS-74" value="Monthly Salary" style="ellipse;whiteSpace=wrap;html=1;align=center;" parent="1" vertex="1">
          <mxGeometry x="625" y="80" width="70" height="40" as="geometry" />
        </mxCell>
        <mxCell id="b2WUHyonEJMLoh59kTHS-78" style="edgeStyle=none;rounded=0;orthogonalLoop=1;jettySize=auto;html=1;entryX=0.5;entryY=0;entryDx=0;entryDy=0;endArrow=none;endFill=0;" parent="1" source="b2WUHyonEJMLoh59kTHS-75" target="b2WUHyonEJMLoh59kTHS-5" edge="1">
          <mxGeometry relative="1" as="geometry" />
        </mxCell>
        <mxCell id="b2WUHyonEJMLoh59kTHS-75" value="Job Start Date" style="ellipse;whiteSpace=wrap;html=1;align=center;" parent="1" vertex="1">
          <mxGeometry x="670" y="120" width="80" height="40" as="geometry" />
        </mxCell>
        <mxCell id="b2WUHyonEJMLoh59kTHS-80" style="edgeStyle=none;rounded=0;orthogonalLoop=1;jettySize=auto;html=1;entryX=0.5;entryY=0;entryDx=0;entryDy=0;endArrow=none;endFill=0;" parent="1" source="b2WUHyonEJMLoh59kTHS-79" target="b2WUHyonEJMLoh59kTHS-7" edge="1">
          <mxGeometry relative="1" as="geometry" />
        </mxCell>
        <mxCell id="b2WUHyonEJMLoh59kTHS-79" value="Check&amp;nbsp; out" style="ellipse;whiteSpace=wrap;html=1;align=center;" parent="1" vertex="1">
          <mxGeometry x="180" y="20" width="70" height="40" as="geometry" />
        </mxCell>
        <mxCell id="bO9rhbKT4PHNCl04hBEk-1" value="Assumptions:" style="shape=note;size=20;whiteSpace=wrap;html=1;" vertex="1" parent="1">
          <mxGeometry x="-20" y="480" width="180" height="100" as="geometry" />
        </mxCell>
        <mxCell id="bO9rhbKT4PHNCl04hBEk-2" value="ISBN" style="ellipse;whiteSpace=wrap;html=1;align=center;fontStyle=4;" vertex="1" parent="1">
          <mxGeometry x="220" y="300" width="60" height="40" as="geometry" />
        </mxCell>
        <mxCell id="bO9rhbKT4PHNCl04hBEk-3" value="IDnumber" style="ellipse;whiteSpace=wrap;html=1;align=center;fontStyle=4;" vertex="1" parent="1">
          <mxGeometry x="430" y="-40" width="70" height="40" as="geometry" />
        </mxCell>
        <mxCell id="bO9rhbKT4PHNCl04hBEk-4" value="IDnumber" style="ellipse;whiteSpace=wrap;html=1;align=center;fontStyle=4;" vertex="1" parent="1">
          <mxGeometry x="570" y="110" width="70" height="40" as="geometry" />
        </mxCell>
        <mxCell id="b2WUHyonEJMLoh59kTHS-47" value="IDnumber" style="ellipse;whiteSpace=wrap;html=1;align=center;" parent="1" vertex="1">
          <mxGeometry x="280" y="340" width="70" height="40" as="geometry" />
        </mxCell>
        <mxCell id="bO9rhbKT4PHNCl04hBEk-7" value="" style="edgeStyle=none;rounded=0;orthogonalLoop=1;jettySize=auto;html=1;entryX=0.25;entryY=1;entryDx=0;entryDy=0;endArrow=none;endFill=0;" edge="1" parent="1" source="b2WUHyonEJMLoh59kTHS-48" target="b2WUHyonEJMLoh59kTHS-47">
          <mxGeometry relative="1" as="geometry">
            <mxPoint x="302.6193931775945" y="410.9515170560135" as="sourcePoint" />
            <mxPoint x="355" y="280" as="targetPoint" />
          </mxGeometry>
        </mxCell>
      </root>
    </mxGraphModel>
  </diagram>
</mxfile>
